<?xml version="1.0" encoding="UTF-8"?>
<svg width="256" height="256" viewBox="0 0 256 256" xmlns="http://www.w3.org/2000/svg">
  <rect width="256" height="256" fill="#4A90E2"/>
  <path fill="white" d="M216 88h-25.5l-7.2-18C176.7 45.8 158.8 33 138.8 33h-54.5c-19.9 0-37.5 12.8-44.3 32l-7.2 18H7c-3.4 0-5.8 3.2-4.9 6.4l2.6 10.4c0.6 2.4 2.6 4 5 4h8.6c-5.8 5-9.3 12.4-9.3 20.8v20.8c0 7 2.7 13.3 7 18.1V184c0 7.6 6.2 13.8 13.8 13.8h13.8c7.6 0 13.8-6.2 13.8-13.8v-13.8h110.5v13.8c0 7.6 6.2 13.8 13.8 13.8h13.8c7.6 0 13.8-6.2 13.8-13.8v-15.5c4.3-4.9 7-11.1 7-18.1v-20.8c0-8.3-3.5-15.7-9.3-20.8h8.6c2.4 0 4.4-1.6 5-4l2.6-10.4c0.9-3.2-1.5-6.4-4.9-6.4zM64 138.5c-8.3 0-13.8-5.5-13.8-13.8s5.5-13.8 13.8-13.8 20.8 12.4 20.8 20.7-12.5 6.9-20.8 6.9zm128 0c-8.3 0-20.8 1.4-20.8-6.9s12.5-20.7 20.8-20.7 13.8 5.5 13.8 13.8-5.5 13.8-13.8 13.8z"/>
</svg>
